<?xml version="1.0" encoding="utf-8"?>
<svg xmlns="http://www.w3.org/2000/svg" xmlns:svg="http://www.w3.org/2000/svg" version="1.1" viewBox="0 0 1400 340">
	<title>The titlepage for the Standard Ebooks edition of Madame Bovary, by Gustave Flaubert</title>
	<g aria-label="MADAME BOVARY">
		<path d="m 299.73391,130 h 17.59065 L 310.40058,52.807016 H 291.68713 L 274.56432,97.345029 257.44151,52.807016 H 238.72806 L 231.80409,130 h 17.59064 l 3.64912,-45.754387 h 0.46784 l 15.81286,45.286547 h 10.47954 l 15.81286,-45.286547 h 0.46784 z"/>
		<path d="m 368.57602,52.807016 h -16.2807 L 321.13742,130 h 18.90059 l 5.7076,-15.4386 h 29.38012 L 380.83333,130 h 18.90058 z m 0.5614,46.31579 h -17.40351 l 8.60819,-22.45614 h 0.18713 z"/>
		<path d="M 407.6535,52.807016 V 130 h 22.36257 c 21.23977,0 38.92398,-16.09357 38.92398,-38.643276 0,-22.45614 -17.77778,-38.549708 -38.92398,-38.549708 z M 425.24414,114.2807 V 68.526315 h 2.71345 c 13.09942,0 21.98831,10.011696 21.98831,22.923977 -0.0936,12.912278 -8.98246,22.830408 -21.98831,22.830408 z"/>
		<path d="M 520.93713,52.807016 H 504.65642 L 473.49853,130 h 18.90058 l 5.70761,-15.4386 h 29.38011 L 533.19444,130 h 18.90058 z m 0.5614,46.31579 h -17.40351 l 8.60819,-22.45614 h 0.18713 z"/>
		<path d="m 623.82748,130 h 17.59064 L 634.49415,52.807016 H 615.78069 L 598.65789,97.345029 581.53508,52.807016 H 562.82163 L 555.89765,130 h 17.59065 l 3.64912,-45.754387 h 0.46784 l 15.81286,45.286547 h 10.47953 l 15.81287,-45.286547 h 0.46784 z"/>
		<path d="M 697.62867,52.807016 H 653.46493 V 130 h 44.16374 v -15.4386 h -26.5731 V 99.029239 h 25.4503 V 83.590642 h -25.4503 V 68.245613 h 26.5731 z"/>
		<path d="M 743.32601,52.807016 V 130 h 29.28655 c 16,0 25.26316,-8.79532 25.26316,-21.52047 0,-12.444443 -6.83041,-17.777776 -16.46783,-19.461987 6.5497,-3.368421 9.63742,-9.450292 9.63742,-16.561404 0,-14.690058 -10.47953,-19.649123 -23.76608,-19.649123 z m 17.59065,30.222223 V 66.374268 h 1.40351 c 7.67251,0 11.6959,2.339181 11.6959,7.859649 0,6.456141 -4.11696,8.795322 -11.6959,8.795322 z m 0,33.403511 V 98.187134 h 5.52046 c 8.32749,0 12.91229,2.526316 12.91229,9.637426 0,6.08187 -4.5848,8.60819 -12.91229,8.60819 z"/>
		<path d="m 807.18129,91.356724 c 0,22.549706 16.09356,40.046786 38.92397,40.046786 22.17544,0 38.83041,-17.49708 38.83041,-40.046786 0,-22.549708 -17.40351,-39.953217 -38.83041,-39.953217 -21.23976,0 -38.92397,17.403509 -38.92397,39.953217 z m 18.99415,0 c 0,-11.508772 6.36257,-23.017544 19.92982,-23.017544 13.66082,0 19.83626,11.508772 19.83626,23.017544 0,11.508776 -5.80117,23.017546 -19.83626,23.017546 -14.40935,0 -19.92982,-11.50877 -19.92982,-23.017546 z"/>
		<path d="m 918.91375,130 h 13.84796 L 965.13598,52.807016 H 945.29972 L 925.83773,103.52047 906.37574,52.807016 h -19.83626 z"/>
		<path d="M 1003.6711,52.807016 H 987.39037 L 956.23248,130 h 18.90058 l 5.7076,-15.4386 h 29.38014 L 1015.9284,130 h 18.9006 z m 0.5614,46.31579 h -17.40353 l 8.60818,-22.45614 h 0.18714 z"/>
		<path d="M 1042.7486,52.807016 V 130 h 17.5906 V 99.497075 L 1083.9182,130 h 22.3625 l -26.5731,-31.906433 c 9.4503,-2.994152 15.8129,-10.760234 15.8129,-22.362574 0,-15.157895 -10.8538,-22.923977 -25.1696,-22.923977 z m 17.5906,34.245615 V 66.842104 h 2.0585 c 6.6433,0 14.5965,0.467836 14.5965,10.105263 0,9.637428 -7.9532,10.105264 -14.5965,10.105264 z"/>
		<path d="m 1097.9898,52.807016 28.4444,42.5731 V 130 h 17.5907 V 95.380116 l 28.4444,-42.5731 h -21.1462 l -16.0935,24.701755 -16.0936,-24.701755 z"/>
	</g>
	<g aria-label="GUSTAVE FLAUBERT">
		<path d="m 359.41228,257.57895 h -26.73684 v 10.17544 h 13.33333 c 0,7.08772 -6.24561,11.15789 -12.5614,11.15789 -8.14035,0 -14.73684,-8 -14.73684,-17.82456 0,-10.03509 6.59649,-18.10526 14.73684,-18.10526 5.12281,0 9.54386,2.03508 12.91228,7.43859 l 8.63158,-9.47368 c -5.05263,-6.10526 -12.14035,-9.89474 -22.31579,-9.89474 -16.2807,0 -28.21052,13.40351 -28.21052,30.03509 0,16.5614 12.63157,29.96491 28.21052,29.96491 11.36842,0 23.57895,-6.24561 26.73684,-20.91228 z"/>
		<path d="m 414.66667,232.10526 h -13.19299 v 33.47369 c 0,9.68421 -2.94736,12.49123 -9.4035,12.49123 -6.45614,0 -9.40351,-2.80702 -9.40351,-12.49123 v -33.47369 h -13.19298 v 37.33334 c 0,14.31579 7.85964,21.61403 22.59649,21.61403 14.73684,0 22.59649,-7.29824 22.59649,-21.61403 z"/>
		<path d="m 447.35855,231.05263 c -9.33333,0 -18.87719,6.8772 -18.87719,17.68421 0,6.03509 4.07018,11.4386 11.01754,14.8772 6.8772,3.43859 13.05264,5.33333 13.05264,9.54385 0,5.40351 -5.47369,5.68422 -8.35088,5.68422 -6.45614,0 -14.17544,-6.52632 -14.17544,-6.52632 l -6.59649,11.08772 c 0,0 8.21053,7.64912 21.75439,7.64912 11.29824,0 21.82456,-4.8421 21.82456,-18.66666 0,-7.57895 -7.08772,-13.05264 -13.54386,-15.78948 -6.59649,-2.80702 -12.07018,-5.12281 -12.07018,-8.35088 0,-3.15789 2.38597,-5.19298 6.87719,-5.19298 5.96492,0 11.7193,4 11.7193,4 l 5.33334,-10.52631 c 0,0 -7.4386,-5.47369 -17.96492,-5.47369 z"/>
		<path d="m 471.09869,243.68421 h 13.75438 V 290 h 13.19298 v -46.31579 h 13.75439 v -11.57895 h -40.70175 z"/>
		<path d="M 547.52851,232.10526 H 535.31799 L 511.94957,290 h 14.17544 l 4.2807,-11.57895 h 22.03508 L 556.7215,290 h 14.17543 z m 0.42106,34.73685 H 534.89694 L 541.35308,250 h 0.14035 z"/>
		<path d="m 590.16118,290 h 10.38596 l 24.2807,-57.89474 h -14.87719 l -14.59649,38.03509 -14.59649,-38.03509 h -14.87719 z"/>
		<path d="M 665.14036,232.10526 H 632.01755 V 290 h 33.12281 v -11.57895 h -19.92982 v -11.64912 h 19.08771 v -11.57895 h -19.08771 v -11.50877 h 19.92982 z"/>
		<path d="M 735.38705,232.10526 H 701.91337 V 290 h 13.19298 v -23.22807 h 18.73684 v -11.57895 h -18.73684 v -11.50877 h 20.2807 z"/>
		<path d="M 759.85418,232.10526 H 746.6612 V 290 h 33.12281 v -11.57895 h -19.92983 z"/>
		<path d="M 821.77192,232.10526 H 809.5614 L 786.19298,290 h 14.17543 l 4.28071,-11.57895 H 826.6842 L 830.9649,290 h 14.17544 z m 0.42105,34.73685 H 809.14034 L 815.59648,250 h 0.14035 z"/>
		<path d="m 896.82125,232.10526 h -13.19298 v 33.47369 c 0,9.68421 -2.94737,12.49123 -9.40351,12.49123 -6.45614,0 -9.40351,-2.80702 -9.40351,-12.49123 v -33.47369 h -13.19298 v 37.33334 c 0,14.31579 7.85965,21.61403 22.59649,21.61403 14.73684,0 22.59649,-7.29824 22.59649,-21.61403 z"/>
		<path d="M 909.55042,232.10526 V 290 h 21.96491 c 12,0 18.94737,-6.59649 18.94737,-16.14035 0,-9.33333 -5.12281,-13.33333 -12.35088,-14.59649 4.91228,-2.52632 7.22807,-7.08772 7.22807,-12.42105 0,-11.01755 -7.85965,-14.73685 -17.82456,-14.73685 z m 13.19298,22.66667 V 242.2807 h 1.05263 c 5.75439,0 8.77193,1.75439 8.77193,5.89474 0,4.8421 -3.08772,6.59649 -8.77193,6.59649 z m 0,25.05263 v -13.68421 h 4.14035 c 6.24562,0 9.68421,1.89474 9.68421,7.22807 0,4.5614 -3.43859,6.45614 -9.68421,6.45614 z"/>
		<path d="M 994.4112,232.10526 H 961.2884 V 290 h 33.1228 v -11.57895 h -19.92982 v -11.64912 h 19.08772 v -11.57895 h -19.08772 v -11.50877 h 19.92982 z"/>
		<path d="M 1006.9956,232.10526 V 290 h 13.193 V 267.12281 L 1037.8728,290 h 16.7719 l -19.9298,-23.92982 c 7.0877,-2.24562 11.8597,-8.07018 11.8597,-16.77193 0,-11.36842 -8.1404,-17.19299 -18.8772,-17.19299 z m 13.193,25.68421 v -15.15789 h 1.5439 c 4.9824,0 10.9473,0.35088 10.9473,7.57895 0,7.22807 -5.9649,7.57894 -10.9473,7.57894 z"/>
		<path d="m 1055.9068,243.68421 h 13.7544 V 290 h 13.193 v -46.31579 h 13.7543 v -11.57895 h -40.7017 z"/>
	</g>
</svg>
